/* XPM */
static char *d2FsbF8y[] = {
/* columns rows colors chars-per-pixel */
"64 64 4 1 ",
"  c #353E50",
". c #434F65",
"X c #5A6988",
"o c #6F7F9F",
/* pixels */
"...................................                             ",
"...................................                             ",
"...................................                             ",
"...................................ooooooooooooooooooooooooooooo",
"...................................ooooooooooooooooooooooooooooo",
"...................................ooooooooooooooooooooooooooooo",
"...................................ooooooooooooooooooooooooooooo",
"...................................ooooXXXXXXXXXXXX....XXXXooooo",
"...................................ooooXXXXXXXXXXXX....XXXXooooo",
"...................................ooooXXXXXXXXXXXX....XXXXooooo",
"...................................ooooXXXXXXXXXXXX....XXXXooooo",
"               ....                            ....             ",
"               ....                            ....             ",
"               ....                            ....             ",
"               ....                            ....             ",
"ooooooooooooooo....oooooooooooooooooooooooooooo....ooooooooooooo",
"ooooooooooooooo....oooooooooooooooooooooooooooo....ooooooooooooo",
"ooooooooooooooo....oooooooooooooooooooooooooooo....ooooooooooooo",
"ooooooooooooooo....oooooooooooooooooooooooooooo....ooooooooooooo",
"XXXXXXXXXXXoooo....ooooXXXXXXXXXXXXXXXXXXXXoooo....ooooXXXXXXXXX",
"XXXXXXXXXXXoooo....ooooXXXXXXXXXXXXXXXXXXXXoooo....ooooXXXXXXXXX",
"XXXXXXXXXXXoooo....ooooXXXXXXXXXXXXXXXXXXXXoooo....ooooXXXXXXXXX",
"XXXXXXXXXXXoooo....ooooXXXXXXXXXXXXXXXXXXXXoooo....ooooXXXXXXXXX",
"XXXXXXXXXXXXXXX........XXXXXXXXXXXXXXXXXXXX........XXXXXXXXXXXXX",
"XXXXXXXXXXXXXXX........XXXXXXXXXXXXXXXXXXXX........XXXXXXXXXXXXX",
"XXXXXXXXXXXXXXX........XXXXXXXXXXXXXXXXXXXX........XXXXXXXXXXXXX",
"XXXXXXXXXXXXXXX........XXXXXXXXXXXXXXXXXXXX........XXXXXXXXXXXXX",
"...                            .................................",
"...                            .................................",
"...                            .................................",
"...                            .................................",
"...oooooooooooooooooooooooooooo.................................",
"...oooooooooooooooooooooooooooo.................................",
"...oooooooooooooooooooooooooooo.................................",
"...oooooooooooooooooooooooooooo.................................",
"...ooooXXXXXXXXXXXXXXXXXXXXoooo.................................",
"...ooooXXXXXXXXXXXXXXXXXXXXoooo.................................",
"...ooooXXXXXXXXXXXXXXXXXXXXoooo.................................",
"...ooooXXXXXXXXXXXXXXXXXXXXoooo.................................",
"...XXXXXXXX....XXXXXXXXXXXXXXXX.................................",
"...XXXXXXXX....XXXXXXXXXXXXXXXX.................................",
"...XXXXXXXX....XXXXXXXXXXXXXXXX.................................",
"...XXXXXXXX....XXXXXXXXXXXXXXXX.................................",
"               ........                        ....             ",
"               ........                        ....             ",
"               ........                        ....             ",
"               ........                        ....             ",
"ooooooooooooooo....    oooooooooooooooooooooooo....ooooooooooooo",
"ooooooooooooooo....    oooooooooooooooooooooooo....ooooooooooooo",
"ooooooooooooooo....    oooooooooooooooooooooooo....ooooooooooooo",
"ooooooooooooooo....    oooooooooooooooooooooooo....ooooooooooooo",
"XXXXXXXXXXXoooo....ooooXXXXXXXXXXXXXXXXXXXXoooo....ooooXXXXXXXXX",
"XXXXXXXXXXXoooo....ooooXXXXXXXXXXXXXXXXXXXXoooo....ooooXXXXXXXXX",
"XXXXXXXXXXXoooo....ooooXXXXXXXXXXXXXXXXXXXXoooo....ooooXXXXXXXXX",
"XXXXXXXXXXXoooo....ooooXXXXXXXXXXXXXXXXXXXXoooo....ooooXXXXXXXXX",
"XXXXXXXXXXXXXXX....XXXXXXXXXXXXXXXXXXXXXXXXXXXX....XXXXXXXXXXXXX",
"XXXXXXXXXXXXXXX....XXXXXXXXXXXXXXXXXXXXXXXXXXXX....XXXXXXXXXXXXX",
"XXXXXXXXXXXXXXX....XXXXXXXXXXXXXXXXXXXXXXXXXXXX....XXXXXXXXXXXXX",
"XXXXXXXXXXXXXXX....XXXXXXXXXXXXXXXXXXXXXXXXXXXX....XXXXXXXXXXXXX",
"................................................................",
"................................................................",
"................................................................",
"................................................................",
"................................................................"
};
