/* XPM */
static char *_cb9542e4cfb4726b09d13cadd4a74c2goVNOZNLj6I34pxa[] = {
/* columns rows colors chars-per-pixel */
"64 64 11 1 ",
"  c #663931",
". c #4D3A42",
"X c #4E3C44",
"o c #4F3D44",
"O c #4F3D45",
"+ c #4F3E45",
"@ c #503F46",
"# c #514047",
"$ c #D18C47",
"% c #D9A066",
"& c #DDD540",
/* pixels */
"################################################################",
"################################################################",
"################################################################",
"################################################################",
"#######################################################X########",
"###############################################X#X###X##########",
"################################################################",
"###############@############.################X##.X.##X##########",
"###############@##############################OO...##.##########",
"#####################.##o####################O#......###########",
"########################@#o####################.#....###########",
"#################.#O.#..O#######################....############",
"#################O##O.O..######################.#.##.###########",
"###################.....O#########################.##.##########",
"###################....OO#####################.#.###############",
"###################OOO.O.@O#############################X#######",
"#################@@@OOOOO#######################################",
"#################@@@@@O#o#######################################",
"##################@@#O##o#######################################",
"###############@@###########o###################################",
"###############@############o###################################",
"################################################################",
"################################################################",
"################################################################",
"################################.###########.###################",
"###################################.############################",
"#####################################..##.######################",
"###########################    $$$$%%%%#########################",
"###########################    $$$$%%%%.########################",
"###########################    $$$$%%%%..#.#####################",
"###########################    $$$$%%%%..#######################",
"###############@O######$$$$$$$$    ##..#.#######################",
"################+######$$$$$$$$    .#..##+######################",
"###################++##$$$$$$$$    #####+#+#####################",
"##################+##+#$$$$$$$$    ###.##+######################",
"#################+#&&&&##+#%%%%%%%%%%%%#########################",
"#################+#&&&&..#+%%%%%%%%%%%%#############+###########",
"##################+&&&&.+##%%%%%%%%%%%%####+#+###+##############",
"###################&&&&..#+%%%%%%%%%%%%##+#++###+###############",
"###########&&&&####.#..$$$$%%%%%%%%$$$$###+&&&&##.##############",
"###########&&&&###+#..+$$$$%%%%%%%%$$$$####&&&&..+##############",
"###########&&&&####+###$$$$%%%%%%%%$$$$####&&&&.+#+#############",
"###########&&&&#+#+##.#$$$$%%%%%%%%$$$$##.#&&&&.+#+#############",
"#######&&&&##.#&&&&+#######$$$$$$$$&&&&####.+.+..###############",
"#######&&&&####&&&&#.######$$$$$$$$&&&&###+#.+.+#+##############",
"#######&&&&###.&&&&.##.####$$$$$$$$&&&&####+###+##+#############",
"#######&&&&####&&&&..######$$$$$$$$&&&&###+#+#+##+##############",
"################...#.##################.############+###########",
"##############+#+.+++#+#################+##########+############",
"#############+#.+####+##########################################",
"#################++#+###########################################",
"#######################+########################################",
"############+##########++#######################################",
"################################################################",
"################################################################",
"################################################################",
"################################################################",
"################################################################",
"################################################################",
"################################################################",
"################################################################",
"################################################################",
"################################################################",
"################################################################"
};
