/* XPM */
static char *_23be23f221e47ccf0b51e2ee5300417MyhukpMg5z2UJ120[] = {
/* columns rows colors chars-per-pixel */
"64 64 5 1 ",
"  c black",
". c #663931",
"X c #D18C47",
"o c #D9A066",
"O c #DDD540",
/* pixels */
"                                                                ",
"                                                                ",
"                                                                ",
"                                                                ",
"                                                                ",
"                                                                ",
"                                                                ",
"                                                                ",
"                                                                ",
"                                                                ",
"                                                                ",
"                                                                ",
"                                                                ",
"                                                                ",
"                                                                ",
"                                                                ",
"                                                                ",
"                                                                ",
"                                                                ",
"                                                                ",
"                                                                ",
"                                                                ",
"                                                                ",
"                                                                ",
"                                                                ",
"                                                                ",
"                                                                ",
"                           ....XXXXoooo                         ",
"                           ....XXXXoooo                         ",
"                           ....XXXXoooo                         ",
"                           ....XXXXoooo                         ",
"                       XXXXXXXX....                             ",
"                       XXXXXXXX....                             ",
"                       XXXXXXXX....                             ",
"                       XXXXXXXX....                             ",
"                   OOOO    oooooooooooo                         ",
"                   OOOO    oooooooooooo                         ",
"                   OOOO    oooooooooooo                         ",
"                   OOOO    oooooooooooo                         ",
"           OOOO        XXXXooooooooXXXX    OOOO                 ",
"           OOOO        XXXXooooooooXXXX    OOOO                 ",
"           OOOO        XXXXooooooooXXXX    OOOO                 ",
"           OOOO        XXXXooooooooXXXX    OOOO                 ",
"       OOOO    OOOO        XXXXXXXXOOOO                         ",
"       OOOO    OOOO        XXXXXXXXOOOO                         ",
"       OOOO    OOOO        XXXXXXXXOOOO                         ",
"       OOOO    OOOO        XXXXXXXXOOOO                         ",
"                                                                ",
"                                                                ",
"                                                                ",
"                                                                ",
"                                                                ",
"                                                                ",
"                                                                ",
"                                                                ",
"                                                                ",
"                                                                ",
"                                                                ",
"                                                                ",
"                                                                ",
"                                                                ",
"                                                                ",
"                                                                ",
"                                                                "
};
