/* XPM */
static char *_8160e636aaf433cbb4361dd60a153f9jSSf1nFXAL3FqggU[] = {
/* columns rows colors chars-per-pixel */
"64 64 6 1 ",
"  c black",
". c #412320",
"X c #434F65",
"o c #6F7F9F",
"O c #8895AF",
"+ c #A6B0C4",
/* pixels */
"                                                                ",
"                                                                ",
"                                                                ",
"                                                                ",
"                                                                ",
"                                                                ",
"                                                                ",
"                         OOOOOOOOOOOO                           ",
"                         OOOOOOOOOOOO                           ",
"                         OOOOOOOOOOOO                           ",
"                         OOOOOOOOOOOO                           ",
"             OOOOOOOOOOXXOOOOOOOOOOOOXXOOOOOOOOOO               ",
"             OOOOOOOOOOXXOOOOOOOOOOOOXXOOOOOOOOOO               ",
"             OOOOOOOOOOXX++++++++++++XXOOOOOOOOOO               ",
"             OOOOOOOOOOXX++++++++++++XXOOOOOOOOOO               ",
"XOOOOOOOOOOXXOOOOOOOOOOXXooooooooooooXXOOOOOOOOOOXXOOOOOOOOOOXXX",
"XOOOOOOOOOOXXOOOOOOOOOOXXooooooooooooXXOOOOOOOOOOXXOOOOOOOOOOXXX",
"XOOOOOOOOOOXX++++++++++XXooooooooooooXX++++++++++XXOOOOOOOOOOXXX",
"XOOOOOOOOOOXX++++++++++XXooooooooooooXX++++++++++XXOOOOOOOOOOXXX",
"XOOOOOOOOOOXXooooooooooXXooooooooooooXXooooooooooXXOOOOOOOOOOXXX",
"XOOOOOOOOOOXXooooooooooXXooooooooooooXXooooooooooXXOOOOOOOOOOXXX",
"X++++++++++XXooooooooooXXooooooooooooXXooooooooooXX++++++++++XXX",
"X++++++++++XXooooooooooXXooooooooooooXXooooooooooXX++++++++++XXX",
"XooooooooooXXoooooooooo                ooooooooooXXooooooooooXXX",
"XooooooooooXXoooooooooo                ooooooooooXXooooooooooXXX",
"Xoooooooooo                                        ooooooooooXXX",
"Xoooooooooo                                        ooooooooooXXX",
"Xoooooooooo                                        ooooooooooXXX",
"Xoooooooooo                                        ooooooooooXXX",
"XXXXXXXXXXX                                        XXXXXXXXXXXXX",
"XXXXXXXXXXX                                        XXXXXXXXXXXXX",
"X++++++++++                                        ++++++++++XXX",
"X++++++++++                                        ++++++++++XXX",
"Xoooooooooo                                        ooooooooooXXX",
"Xoooooooooo                                        ooooooooooXXX",
"Xoooooooooo                                        ooooooooooXXX",
"Xoooooooooo                                        ooooooooooXXX",
"Xoooooooooo                                        ooooooooooXXX",
"Xoooooooooo                                        ooooooooooXXX",
"Xoooooooooo                                        ooooooooooXXX",
"Xoooooooooo                                        ooooooooooXXX",
"XXXXXXXXXXX                                        XXXXXXXXXXXXX",
"XXXXXXXXXXX                                        XXXXXXXXXXXXX",
"X++++++++++                                        ++++++++++XXX",
"X++++++++++                                        ++++++++++XXX",
"Xoooooooooo                                        ooooooooooXXX",
"Xoooooooooo                                        ooooooooooXXX",
"Xoooooooooo                                        ooooooooooXXX",
"Xoooooooooo                                        ooooooooooXXX",
"Xoooooooooo                                        ooooooooooXXX",
"Xoooooooooo                                        ooooooooooXXX",
"Xoooooooooo                                        ooooooooooXXX",
"Xoooooooooo                                        ooooooooooXXX",
"XXXXXXXXXXX                                        XXXXXXXXXXXXX",
"XXXXXXXXXXX                                        XXXXXXXXXXXXX",
"X++++++++++                                        ++++++++++XXX",
"X++++++++++                                        ++++++++++XXX",
"Xoooooooooo........................................ooooooooooXXX",
"Xoooooooooo........................................ooooooooooXXX",
"Xoooooooooo........................................ooooooooooXXX",
"Xoooooooooo........................................ooooooooooXXX",
"Xoooooooooo........................................ooooooooooXXX",
"Xoooooooooo........................................ooooooooooXXX",
"Xoooooooooo........................................ooooooooooXXX"
};
