/* XPM */
static char *c02e99ec21df46b0dee39c12131b2784tQcKq0uge739LBLA[] = {
/* columns rows colors chars-per-pixel */
"64 64 173 2 ",
"   c black",
".  c #150B0C",
"X  c #1A0E0F",
"o  c #141617",
"O  c #1C1111",
"+  c #17181A",
"@  c #2C1716",
"#  c #241C1D",
"$  c #311B1A",
"%  c #1C1E20",
"&  c #27282A",
"*  c #2C2C2E",
"=  c #372929",
"-  c #2F2F31",
";  c #2F3031",
":  c #343436",
">  c #3B3B3C",
",  c #45231F",
"<  c #442421",
"1  c #482623",
"2  c #4D2926",
"3  c #462A28",
"4  c #522B26",
"5  c #582D27",
"6  c #532D29",
"7  c #592E29",
"8  c #4C302E",
"9  c #5D322D",
"0  c #4D373C",
"q  c #433B3C",
"w  c #563637",
"e  c #60342F",
"r  c #623530",
"t  c #693732",
"y  c #663934",
"u  c #6C3A35",
"i  c #703C37",
"p  c #783E37",
"a  c #723D38",
"s  c #71413D",
"d  c #79423C",
"f  c #3F3F41",
"g  c #4E3C44",
"h  c #503F46",
"j  c #5D3E41",
"k  c #623F41",
"l  c #3F4142",
"z  c #434545",
"x  c #4D434F",
"c  c #4D4D4E",
"v  c #514047",
"b  c #5C4246",
"n  c #53454F",
"m  c #5F4348",
"M  c #4A4C5E",
"N  c #504753",
"B  c #534953",
"V  c #5B4953",
"C  c #555657",
"Z  c #5C5C5C",
"A  c #644243",
"S  c #6A4747",
"D  c #6D4A4E",
"F  c #754E4A",
"G  c #72514D",
"H  c #79514C",
"J  c #6E4C50",
"K  c #734F52",
"L  c #6F5457",
"P  c #765253",
"I  c #7C5653",
"U  c #7E5855",
"Y  c #735A5F",
"T  c #424D63",
"R  c #4F4F60",
"E  c #455168",
"W  c #4A566D",
"Q  c #525263",
"!  c #5C5563",
"~  c #5E5865",
"^  c #515569",
"/  c #52586C",
"(  c #5D5C6B",
")  c #4C5972",
"_  c #525E75",
"`  c #625E6D",
"'  c #556076",
"]  c #5D6075",
"[  c #566279",
"{  c #5A667B",
"}  c #67676C",
"|  c #616070",
" . c #636379",
".. c #737373",
"X. c #787979",
"o. c #82463F",
"O. c #824740",
"+. c #8C4C45",
"@. c #904F47",
"#. c #9C554D",
"$. c #885A5C",
"%. c #915F61",
"&. c #847775",
"*. c #8C7D7B",
"=. c #937F7C",
"-. c #5B6985",
";. c #656981",
":. c #6C6D85",
">. c #696F89",
",. c #63718E",
"<. c #6E768D",
"1. c #787589",
"2. c #757A8F",
"3. c #637390",
"4. c #6E7C97",
"5. c #6E7E9E",
"6. c #737C94",
"7. c #6E7FA0",
"8. c #6F7FA0",
"9. c #77839B",
"0. c #76839C",
"q. c #7C869C",
"w. c #7D869E",
"e. c #7F889F",
"r. c #6F80A1",
"t. c #7080A0",
"y. c #7081A2",
"u. c #7082A3",
"i. c #7D89A1",
"p. c #7D8BA8",
"a. c #7E8DAA",
"s. c #848485",
"d. c #87858A",
"f. c #8C8C8D",
"g. c #998D8B",
"h. c #898894",
"j. c #908D9D",
"k. c #8F9090",
"l. c #939493",
"z. c #9E9492",
"x. c #929699",
"c. c #9B9B9B",
"v. c #A09594",
"b. c #818DA3",
"n. c #848FA6",
"m. c #8590A7",
"M. c #8794AF",
"N. c #8994A9",
"B. c #8895AF",
"V. c #8F99AD",
"C. c #919BAF",
"Z. c #8996B1",
"A. c #909BB0",
"S. c #909CB5",
"D. c #929EB6",
"F. c #98A1B2",
"G. c #99A5BC",
"H. c #9BA6BD",
"J. c #9BA7BE",
"K. c #9CA8BF",
"L. c #A2A2A2",
"P. c #AEAEAE",
"I. c #B0B0AF",
"U. c #B2B2B2",
"Y. c #B9BABA",
"T. c #9CA9C0",
"R. c #A0ABC0",
"E. c #A2ADC2",
"W. c #C5C5C5",
"Q. c #C9CACB",
"!. c #D6D6D6",
"~. c #E2E2E2",
"^. c #F4F4F4",
/* pixels */
"v v v v v v v v v v v v v v v v v v v v v v v v v v v v v v v v v v v v v v v v v v v v v v v v v v v v h h v v v v v v v v v v ",
"v v v v v v v v v v v v v v v v v v v v v v v v v v v v v v v v v v v v v v v v v v v v v v v v v v v v h h v v v v v v v v v v ",
"v v v v v v v v v v v v v v v v v v v v v v v v v v v v v v v v v v v v v v v v v v v v v v v v v v v v h n n h v v v v v v v v ",
"v v v v v v v v v v v v v v v v v v v v v v v v v v v v v v v v v v v v v v v v v v v v v v v v v v v v h h h h v v v v v v v v ",
"v v v v v v v v v v v v v v v v v v v v v v v v v v v v v v v v v v v v v v v v v v v v h h h h v v h h n h v h v v v v v v v v ",
"v v v v v v v v v v v v v v v v v v v v v v v v v v v v v v v v v v v v v v v v v h v v h h h n h h h h h h v h v v v v v v v v ",
"v v v v v v v v v v v v v v v v v v v v v v v v v v v v v v v v v v v v v v v v h h h h n h h h h h h h h h h b v v v v v v v v ",
"v v v v v v v v v v v v v v v h h v v v v v v v v B ~ ` ` ` ` ` ` ` ` ` ` ~ B v h n h h h h h g h h h h h h h h v v v v v v v v ",
"v v v v v v v v v v v v v v v h h v v v v v v v h ~ 6.i.w.w.w.w.w.w.w.w.h.6.~ v v v v v h v v h g g g g h h v v v v v v v v v v ",
"v v v v v v v v v v v v v v v v v v h h h h v h h ( w.Z.B.B.M.B.Z.M.Z.M.B.i.( h v v v v h h h h g g 0 g h h h v v v v v v v v v ",
"v v v v v v v v v v v v v v v v h h h h h g h g h ` h.Z.B.B.B.B.B.B.M.B.M.w.` h h h v v h g h h g g g g h h h v v v v v v v v v ",
"v v v v v v v v v v v v v B ~ ` ` ` ` ` | ` ` ! N ( 9.B.B.B.B.M.B.B.B.B.Z.w.( N ~ ` | | ` | | ( ` ! N h h h h v v v v v v v v v ",
"v v v v v v v v v v v v v ~ 2.e.h.i.i.9.w.w.i.<./ _ 9.Z.Z.B.M.M.M.M.B.B.Z.0._ / <.i.w.w.w.w.9.h.9.<.! g h h h h h h h h v v v v ",
"v v v v v v v v v v v v v ` w.B.B.B.M.M.B.Z.Z.0._ _ i.D.D.D.D.D.D.D.D.F.D.i.' _ 9.Z.Z.Z.M.M.B.B.M.h.` h h h h h h h n h v v v v ",
"v v v v v v v v v v v v g ` b.M.B.B.B.B.B.Z.Z.0._ [ N.E.E.H.E.T.H.E.T.T.R.N.{ _ 9.Z.Z.Z.M.B.B.B.Z.i.` h h h h h b h h h h h v v ",
"x B ! ` ` ` ` ` ` ` ` ! N ( w.B.B.B.B.B.B.B.Z.0._ [ n.T.G.G.G.G.G.G.G.H.G.m.[ _ 0.Z.Z.Z.Z.M.B.B.M.i.( N ! | | ` | | | | | ~ B z ",
"T / <.b.w.w.w.w.i.w.i.<./ _ 9.Z.Z.B.B.B.M.M.B.5._ ) 4.p.a.a.p.p.p.p.a.p.p.4.) _ 6.B.Z.M.M.M.M.Z.Z.5._ / <.b.h.i.i.i.w.h.p.<./ M ",
"T ' 9.Z.B.B.B.M.M.Z.Z.0._ _ i.D.D.D.D.D.D.D.D.h.[ ) ,.7.7.7.5.5.5.5.5.5.5.,.) _ i.D.D.D.S.D.D.S.S.i._ _ 9.Z.M.M.M.M.B.B.M.5.{ T ",
"T ' 0.Z.Z.B.B.B.M.Z.Z.0._ { N.E.R.R.R.R.R.E.T.B.[ ) 3.7.5.5.5.5.5.5.5.5.u.,.) { B.E.R.R.T.R.T.R.E.N.{ _ 9.Z.Z.M.Z.B.B.B.Z.9.) T ",
"T _ 0.Z.Z.B.B.B.Z.Z.Z.0._ _ m.H.G.G.G.G.G.G.T.m.[ ) 3.0.7.5.5.5.5.5.5.u.5.3.) { n.H.H.G.G.G.G.G.K.m._ _ 5.B.Z.Z.M.B.B.B.Z.9._ T ",
"T _ 0.Z.M.M.M.M.M.M.Z.0._ _ 4.m.p.p.p.p.a.a.a.4.[ ) 3.r.r.r.7.7.5.5.5.u.8.3.) _ 6.n.p.a.n.p.p.p.m.4._ _ 8.Z.Z.Z.Z.Z.Z.Z.B.9.) T ",
"T [ i.F.D.D.S.S.D.D.D.i._ W 3.7.8.5.5.5.7.5.5.,.) ) 3.r.r.r.7.r.8.8.8.u.u.3.) ) 3.7.7.7.5.5.7.7.8.3.W _ b.D.D.S.D.Z.D.D.D.b.{ T ",
"T { N.K.E.K.K.E.R.E.E.Z.{ ) 3.7.5.5.5.5.5.5.7.3.) ) 3.r.r.r.7.r.u.8.u.u.u.3.) ) 3.7.7.7.8.5.8.8.8.3.W { N.R.E.E.H.R.R.E.T.N.{ T ",
"T [ m.H.K.G.G.G.G.G.G.b.[ ) 3.u.u.8.8.u.8.u.u.,.W R ] ;.:.:.:.:.:.:.;.:.;. .M ^ ,.u.7.7.u.8.8.u.8.3.) { m.G.H.G.G.G.G.H.T.n._ T ",
"T _ 4.a.n.p.b.p.p.p.a.4._ ) 3.r.u.8.u.u.r.r.u.>.V w 0 g b b A A b b b b g 0 w V >.7.u.u.7.u.7.u.7.3.) _ 4.n.p.p.p.p.p.p.n.4.) T ",
"T ) 3.5.5.5.7.7.5.5.5.,.W R  .;.:.;.;.;.;.:.>.| k 4 < < 4 5 7 7 7 7 7 4 < , 4 j | :.:.;.;.;.;.:.:. .R W ,.5.5.7.8.8.5.5.7.3.) T ",
"T ) 3.r.5.5.5.5.8.8.7.;.V w j A A b h 0 j A b j w 4 , < 4 9 9 7 7 5 7 7 , , 4 w j m m j h h j j A j w V :.7.7.7.5.5.5.5.7.3.) T ",
"T ) 3.7.u.5.5.u.8.u.u.;.m 7 7 7 7 4 , < 7 9 9 9 7 7 2 2 7 9 w 9 9 y 9 7 2 2 7 9 9 9 9 7 < < 6 5 7 7 6 m :.7.u.u.7.0.7.7.7.3._ T ",
"T _ 3.u.u.5.7.7.8.u.8.:.A 7 7 7 7 4 < 1 9 t t y t y 9 9 r y y y y u u r 9 9 r t y y t 9 1 < 4 7 7 7 7 m :.7.8.7.u.8.7.7.7.3._ T ",
"T W -.3.3.3.3.3.3.3.3. .A 7 r 7 9 7 2 2 y i i u u t e r u u i i u i u u e e u y u i u y 6 2 7 9 9 9 9 m  .3.3.3.3.3.3.3.3.-.W T ",
"T E W ) ) ) ) W ) ) ) Q k y t t y e 7 9 y u u i a u 9 9 u i i u i i i u e y u u u i u y 9 7 y t u t y A R ) ) ) ) ) ) ) ) W E T ",
"T W [ { { { { { { { { | L F F K I F y r t u i u u u y 7 7 6 6 6 6 6 4 2 < 2 y u i u u u r 9 u u u u u S ` { { { { { { { { [ W T ",
"T _ w.A.C.C.C.C.V.C.V.j.s.&.&.*.g.*.s e t t u i y s y 4 @ O X X X X . . . @ 9 a u u u t e e t s u u i H d.Z.A.V.V.V.C.V.A.w._ T ",
"T { n.T.H.H.G.G.G.H.G.F.x.k.l.C.P.z.G e t s u u s y 4 $ # % & ; - : g z l > 8 7 t s s t e e t u u u t I j.T.T.T.G.G.H.H.T.m.( T ",
"T _ 4.n.a.p.p.p.b.a.a.b.k.l.L.P.U.l.G 7 t u u i t 7 @ # : C X.d.d.c.U.Q.Q.c.> @ 5 s s y e e y t u u t G 1.M.a.p.a.p.a.a.M.5._ T ",
"T ) ,.5.5.5.5.5.r.r.4.9.1.*.g.z.v.*.S 9 t i i y 9 , # ; Z X.s.d.d.c.Y.!.~.U.} q 8 5 t t e e t s u u u F :.7.7.5.5.5.5.7.7.3.) T ",
"T ) 3.8.5.5.5.5.r.7.7.<.Y H +.U U F s 7 t s u 7 $ # > Z d.s.c - ; : l C ..c.Y.c.q @ 5 y e e t s i u u D :.7.5.5.5.5.5.5.7.,.) T ",
"T ) 3.u.u.5.5.5.r.r.r.:.D t t t t y 9 9 y s p 4 O + z ..L.d.*         . > d.~.Q.f . 4 s e e t t u u u J :.u.u.5.5.8.5.u.7.,.) T ",
"T ) 3.0.5.5.5.7.0.r.r.:.D t t u t y e e s t s 4 X o z ..L.s.&         o l s.~.Q.f . 4 s r e y s u t u F :.r.7.5.5.5.7.8.r.3.) T ",
"T ) 3.7.u.u.7.7.7.u.u.:.K u u i s u e e t y 7 3 # * Z s.L.l.c * * * * > Z f.!.W.} q 8 7 5 e t s H H a D 1.7.u.u.u.8.5.u.u.3.) T ",
"T ) 3.8.u.u.5.8.7.r.r.<.J u u u t y e e t 7 $ # > Z s.L.P.L.g.s.s.d.s.f.l.L.Y.W.W.c.q @ , r s H =.=.H D :.u.8.7.5.u.u.u.u.3._ T ",
"T ) -.3.,.3.3.3.3.,.3. .S u u i s t e e s 5 O + z ..C.I.I.P.I.I.U.U.U.I.I.P.P.W.^.W.g . , r r U v.v.I S  .3.3.3.3.,.3.3.3.-.W T ",
"T E ) ) ) ) ) ) ) ) ) Q A u i u t y e e u 6 O + z ..c.I.P.P.I.I.U.U.U.U.I.P.L.W.^.W.l . , 9 t U v.v.I k Q ) ) ) ) ) ) ) ) W E T ",
"T W _ { { { { { { { -.( S u u u s t e e u 6 O + z ..c.I.P.P.P.L.l.s.s.l.L.P.P.W.^.W.l . , 9 t U v.v.$.k ` { { { { { ( { { _ W T ",
"T _ 0.A.C.C.C.C.C.V.A.d.H u t i s y 9 r u 6 X + z ..c.P.P.P.I.k.c & * c f.P.P.W.^.W.z . , 9 t U v.z.H H d.A.Z.C.C.C.C.A.A.w._ T ",
"T { n.T.H.H.H.H.H.G.T.j.I u i t u u r r u 6 O + z ..c.P.P.I.I.s.*     * s.I.P.W.~.U.f . , e t U z.z.I P j.T.T.H.G.G.G.T.T.N.{ T ",
"T _ 4.m.a.b.b.p.p.a.M.1.J u t s u y 9 r s 6 O + z ..c.P.P.I.U.s.*     * s.U.P.U.W.g.; . , r y U v.z.I F 1.a.a.p.a.a.p.a.n.4._ T ",
"T ) 3.7.7.5.5.5.5.r.r.:.D u i u u y r 9 y 7 O + z ..c.I.P.I.I.s.*     * s.U.I.I.P.9.* . , 9 y $.v.v.I D :.7.7.5.5.5.5.7.7.,.) T ",
"T _ ,.7.5.5.5.5.5.8.8.:.D u i u u u 9 9 u 8 O + z ..c.I.P.I.I.s.-     * s.I.I.I.P.s.* X < 9 r $.v.v.I D :.8.u.5.5.5.5.5.8.3._ T ",
"T ) 3.7.8.5.5.8.5.u.5.:.K t u u u u r r u 7 O + z ..c.I.P.I.I.k.c & & c f.I.I.I.U.s.* . < r t H =.=.H D :.u.u.5.5.5.5.t.t.3._ T ",
"T ) 3.8.8.5.5.8.5.5.8.1.F t i u i y r 9 u 6 O + z ..c.I.P.P.P.L.k.s.s.l.L.I.I.I.U.s.* X < y u S H H a D :.8.8.8.5.5.5.8.5.,._ T ",
"T _ 3.8.u.8.8.7.u.u.u.:.J i u u u u 9 r u 6 O + z ..c.I.I.I.I.I.P.U.U.I.I.I.P.U.U.s.* . < r u u u t t J :.8.u.8.8.u.5.8.8.,.) T ",
"T _ 3.u.u.8.7.u.8.u.u.:.J u u u u u 9 r u 8 O + z X.c.U.U.U.U.U.U.U.U.U.P.P.U.U.U.d.- . 1 r u u i t u F :.8.8.8.u.5.8.8.8.3._ T ",
"T W -.3.3.3.3.3.3.3.3. .S u u u u t e r u 7 $ # > C X.s.d.s.s.s.s.s.s.s.s.w.s.s.d.} - @ 3 r t u i u u D  .3.3.3.,.3.3.,.3.-.) T ",
"T E W ) ) ) ) ) ) ) ) Q k t t u u t 9 r u y 9 3 # % & - * * * * * * : * * * * * - = 8 7 9 9 y u i u u k ! W W ) ) ) ) ) _ W E T ",
"T W _ { { { ( -.{ { { | K F H H I G y 9 u u i 9 $ X . . O X O X O X O X X X X X X $ 7 u r 9 u i u u u S ` -.-.[ { { { { { _ W T ",
"T [ w.A.V.V.V.V.A.C.C.j.s.&.&.=.g.*.S 9 t u i u 7 6 1 1 2 6 6 6 6 6 6 6 1 , 4 6 4 7 t u 9 r u u u u u P d.Z.V.V.C.C.V.V.V.9._ T ",
"T [ b.T.J.G.G.G.H.H.H.D.x.h.z.C.P.z.G 9 t u u i i u 9 r u i u i u u u u e y u u i i u u r 9 y i a u u K j.T.T.G.H.H.T.T.R.m.{ T ",
"T _ 4.a.m.a.a.a.n.p.a.b.k.l.L.P.I.z.G 9 t u u u i y r r u i i i s i u u 9 r u u a i u t 9 9 u u u u u K 1.B.B.p.b.p.p.b.M.4._ T ",
"T ) ,.5.7.r.5.5.8.7.7.4.X.*.g.z.v.*.S 9 y u u i i y r 9 y u u u u u u u r r y u i u u t r r t u u u t D :.7.8.5.5.5.5.5.7.,.) T ",
"T ) 3.7.7.5.5.5.5.7.t.1.Y H H H U F y 9 t u u i u y 9 9 t u u u u u t y 9 r y u a u u t 9 9 t i u u u K :.u.8.8.5.5.5.8.7.3.) T ",
"T ) 3.7.7.5.5.5.7.5.t.:.P d d d a i r r i d p d d a r y p d d d d d d s r r s d p p F i r r a p d p p K :.8.8.8.5.8.8.8.5.3.) T ",
"T _ 3.u.0.r.5.7.7.7.t.1.$.@.+.+.@.o.y u O.@.@.@.@.F y y F @.@.@.@.@.@.o.y u o.@.@.@.@.F u y O.@.@.@.@.$.1.7.8.8.8.8.8.8.7.3.) T ",
"T ) ,.u.r.7.5.5.5.7.4.1.%.#.#.#.#.+.t u +.#.#.#.#.+.u u +.#.#.#.#.#.#.+.u t +.#.#.#.#.+.u u +.#.#.#.#.%.1.8.9.5.8.8.8.8.7.3.) T "
};
