/* XPM */
static char *_7bee42b34074d8fab8a44eb540294382sXkbd9Y1kJTkiKG[] = {
/* columns rows colors chars-per-pixel */
"64 64 73 1 ",
"  c #563F3C",
". c #5A413E",
"X c #4E3E46",
"o c #513F45",
"O c #503F48",
"+ c #534146",
"@ c #5B4342",
"# c #554248",
"$ c #5B4449",
"% c #614542",
"& c #664845",
"* c #6B4A46",
"= c #624749",
"- c #63484B",
"; c #664948",
": c #674A49",
"> c #63484C",
", c #63494C",
"< c #654A4C",
"1 c #664A4C",
"2 c #664A4D",
"3 c #674B4D",
"4 c #694B4A",
"5 c #6A4B4A",
"6 c #6C4B48",
"7 c #6E4C48",
"8 c #6D4C4A",
"9 c #694B4C",
"0 c #684B4D",
"q c #6D4D4C",
"w c #704D48",
"e c #714D48",
"r c #724E49",
"t c #714E4B",
"y c #744F4B",
"u c #714E4C",
"i c #704F4F",
"p c #74504B",
"a c #76504B",
"s c #77504B",
"d c #77514B",
"f c #74504C",
"g c #76514C",
"h c #78514C",
"j c #79524C",
"k c #78524D",
"l c #79524D",
"z c #7A524D",
"x c #7B534E",
"c c #7D544F",
"v c #755150",
"b c #765251",
"n c #785351",
"m c #7F5550",
"M c #7E5551",
"N c #7D5552",
"B c #815650",
"V c #835751",
"C c #835752",
"Z c #835852",
"A c #855853",
"S c #845854",
"D c #845954",
"F c #855955",
"G c #875A54",
"H c #885A53",
"J c #885A54",
"K c #895B55",
"L c #8B5C56",
"P c #8C5C56",
"I c #8D5D56",
"U c #8D5D57",
"Y c #8E5D57",
/* pixels */
"XX+$;tahhhghghghghghhat;$+XXXX++XX+$4tahhhghghghghghhat;$#XXXXo#",
"X+$$4taghghghghghghghat4=#+XX+XXX+$$4tahghhghghghgghhat4%#+#XXOX",
"##$=4tahghghghghghghhaa42$##+++++#$>4aahhghgghghhghghatq2$##+O+X",
"$$=;8aahhghghghghahahagu82;$#++###$48aaaghghhghgghahagguq2;$#+#X",
"*448taagghghghghghahhgghvvi2$##$$;48taaahghghghghghahaahvvi2$##+",
"tttapaahhghghghghgaaahhcZZMv>$#$;4ahaaaaghghghghghaaaagcDNMv>$+X",
"aaaaaaggghghghghghaaaggZGKKv2##$;gahghgghhhghghghgaaaghVGGGv>#XX",
"hhhagggaaghghghghgaaahaVCPGv2$#$;aghhghaygghghghghaaahhAGKGn2#+X",
"hghghghyaghghghgghaaagcVKKDn2##&;ugghhgaaghghghgghaaghyVGUGv2$oX",
"hhghghhgygghghghhgaaahhcGGDv2$#$;fghhghgggghghghhgaayhhVGKGv2$OX",
"ghhghghghghghghgghaaahhVAKDn;$#$;tahhhghhghghghgghaaahxVSGGv2#OX",
"hgghghghhhghghghhgaaaghZAKDn2$#$4tahhghgghghghghhgaaahhxHKGv2#OX",
"ghghhghghghghghgghaaghhMAKAv2$+$;uahhgghhghghghgghaayhhVGKGv2$+X",
"hghgghghghghghghhgaaahhZKKKv;$#$;tahhhhgghghghghhgaahhxCGGDv2$OX",
"ghghhghghghghghgghaaahhZGKAv2$$$4tahhhghhghghghghgaayhhNGGGv2#+X",
"hghgghghghghghghggaaaagMGGGv;$#$;uahhghgghghghghggaayyhSGGGv2#OX",
"ghghghghhghghghghgaaaahVGKGv2$#$;pahxakaakakakaxhaaaaahcAKGv2$#X",
"hghghghgghghghghaaggaagVGKDv2$$$2aahakagkakakagaagaaahhAHKGv2#+X",
"ghghaagyaaaaaaaaaahhxhcZGKGv2##$;fagakaaaaaaaaaaaahghhcZKHGv2$XX",
"hghgaaaaaaaaaaaaaaghhhVAKUDv2$#$:uajaaaaaaaaaaaaaghhhcVKPPGv2#XX",
"hhaaaaaagaaaagaaaajjVZDKPPKv2$#$*pggaaaaaaaaaaaaaaaccAHHUUGv2$#X",
"aaaahhhgghhgahagajacZGKPPPGv2#@$;taghaxaakkaajgaagjcAAKYULDv2$XX",
"tyyaghhhhhhhhhhhhxcBAKPPKGMf-##$;8ppaxhjxhxgxjxjhhcZAKPPGGMf>#XX",
"**8yhcCCBVVBVZBBcZAAPPPKGhf8$#+@$**ajcBZBZcBcBBBCcAAKPPHDMg;$##X",
"%%*tjCAHKCAHAAHHAHHKIIKZa8*$@+++@%*7jZAAHHHAAHHAKAKKPPHZgt*$@#oX",
".%%*yCKKKKKKHHHHKKKPPPGMp&@.+oo+@.%*jAKPHHHHHHKKHKKPPPAct&@.+++o",
" .%*yCCHKGAKHHHVGHAGHAMa*@.+o++o. @7pZAKKHHKAAAAGAKKKKca&@@oo++X",
"X..%*sjjhhhhjjajgxaxxap*@@+.ooooX+@@4ajjjjaajjjxhhhhhja8%@ XXoX+",
"X..@%*****87******8*7**&@+ooXooo o+@%**********8*******%@+oXooo+",
"XX++@@%%%%%%%%%%%%%%%.@@@+++oo+XX++@$@%%%%%%%%%%%%%%%%..+++Xoo+O",
"oX+++@.%......%%.%...%..++XXooXooX++...%.%.%..%.%....%.+.++OXO+O",
"X+++@%%%&%&%%%%%%%%&%%%.++XXXooo#X++@%%%&%%%%%%%%%%&%%%@++XXOOX+",
"XX+@%******************$#++X#XXXXX#@$*****************;%#+XXXoo#",
"X##$;*tyyettttttttejtt8;#+++XOX+X+#$;*tuytttyty*tyyeyt**$#++oO+X",
"#+$=4uagjyaaaaaayyyyjau4>$##+++++#$-4tjjgaaayayjjyyjggy4;$##+O+O",
"$$=4qyghjjhhhhhhjjsjjjggi9>$#+++#$=;8aaahhhhjajjssjsggggq92$#++X",
"446qagghjjsjghghjyjsghghvvi>$##@$;48aaahhhghhghghhjajaahvvi2$##+",
"tttyaaggyyjyhghgyjjyahhMGZMv>$#$;8gaaaggghhgghghhyyjyhjcDDNv>#+X",
"aaaaaaghghyhghghsjsygggMGKDv;$$$;uahghhghhhghghgshjyjhhVGGGv3#+X",
"hhhhhghaayhjhghghyssghhZGKGn2$#$;ghhhghaygghghghhyysyahAGKGv2#XX",
"hhghghgaagghghghshaaahhVGKGv2$#$4tghhhgaayhhhghgjayjjyyVKGGv2$#X",
"hghghghgghhghghghaaaaahVGKGv2$$$;uyhhghgggghghghajsyyhxVKKGv2#OX",
"ghghghghhghgghghghgaghhVGGDn2##$4tahhhghhghghghgjaysyjhVGKGv2#+X",
"hghghghgghghhghghgaaaggVGGDv2$#$;tahhghgghghghghghjyyjsNSKGv2#OX",
"ghghghghhghghghgggaaahhVGGGn3$@$;gahhgghhghghghghgyahghVGKGv2##X",
"hghghghgghghghghhgaaaahVGKDv;$#$;tahhhhgghghghghghaayhxCGGDv2$+X",
"ghghghghhghghghgghaaaahVZKZn3$#$;tahhhghhghghghgghaahghNGGDv2$OX",
"hghghghgghghghghggaaaggVGGDn2#$$2yaahghgghghghghhgaayyhVGKGv2#XX",
"ghghghghghghghghaaaaaahZZKAg>$#$;pahxaxaghghghghgaaaaahMAKGv3##+",
"hghghghghghghgggajaaagxcAKGn2##$2aahggaghghahghaahaahhhAKKGv2#+X",
"ghghaaaaaaaaaaaaaaaahhcZGKDv2$$$;fagagaagaaagaaaaaghhhcAHKAv2##X",
"hghgaaaaaaaaaaaaaaajccZAKUGv;$#%:qaxaaaaaaaaaaaaaahhhhZHKPKg2#XX",
"hhhhaaaaaaggaaaaaaacVAAKPUGv2$#$*pggaaaaagaaaaaaaahhVZHHUUGv2$#+",
"aaaahahaghhhhggaaajcAKKPUPGv2#+$;paghaxaahhaghhgaghcAAKPUKGv2#XX",
"tyyaahhhhhhhgghhjccBAAPPKGMq>$#$;*8hahhjhhhxhhhhhhcVAKPPGGMf>#+X",
"***yhcAVVAxVVVVZccAKKPPAGMu8$##$%**gjcVZZBMVBMVVCMAAKPPKDMg0$#XX",
"%&*thZAHAAGGGGCKHAHPPYKZat*$@+o#$%*taZAAHAAAHAGAKAHKPPKGgu*$@#oX",
"..%*gAKPKKKKGKKHKHKPPPAct&..o+++.@%*hAKPPHKKKKKKHKKPPPCh8&%.+++o",
"..@4aMAHHGGGGKGCHAAHKHAa*@.oo++o+ @*aZAACAHHAKGKGCCKKKVy*@ooo++X",
" .@%4ahMhhhhhhhhhhhhjjt8%@o ooooX.@%8ajxhhhjhhhhhhgMjjy8%@ oXoX+",
"XX.@%4*****************%@++oooooX++.@***********8******%@+X+ooo+",
"X++++@%.%%..@%%%.%%%%@@@@oooooOoo+++@@%%%%%%%.%%%@%%%..@+++Xoo+O",
"X+++ ..................o+++XXO+XX++. ..................+.X+XOX+X",
"XXX     ..    ..        ooooooXooXXXX...                ooOOOX++"
};
