/* XPM */
static char *_f986747b42b4f139485eadf80dfab28mrbiYCXkvoEGM9Ok[] = {
/* columns rows colors chars-per-pixel */
"64 64 10 1 ",
"  c #514047",
". c #503F46",
"X c #503E46",
"o c #4F3E45",
"O c #4F3D44",
"+ c #4E3C44",
"@ c #4E3B43",
"# c #4D3A42",
"$ c #4F3D45",
"% c white",
/* pixels */
"                                                                ",
"                                                                ",
"                                                                ",
"                                           ..          ..       ",
"                                           ..          ..       ",
"                                              ........          ",
"                                             ..........         ",
"               ..          ..                ..XoOOoX..         ",
"               ..          ..                ..o+@@+o..         ",
"                  ........                   ..O@##@O..         ",
"                 ..........                  ..O@##@O..         ",
"                 ..XoOOoX..                  ..o+@@+o..         ",
"                 ..o+@@+o..                  ..XoOOoX..         ",
"                 ..O@##@O..                  ..........         ",
"                 ..O@##@O..                   ........          ",
"                 ..o+@@+o..                ..          ..       ",
"                 ..XoOOoX..                ..          ..       ",
"                 ..........                                     ",
"                  ........                                      ",
"               ..          ..                                   ",
"               ..          ..                                   ",
"                                                                ",
"                                                                ",
"                               ..          ..                   ",
"                               ..          ..                   ",
"                                  ........                      ",
"                                 ..........                     ",
"                                 ..XoOOoX..                     ",
"                                 ..o+@@+o..                     ",
"                                 ..O@##@O..                     ",
"                                 ..O@##@O..                     ",
"               ..          ..    ..o+@@+o..                     ",
"               ..          ..    ..XoOOoX..                     ",
"                  ........       ..........                     ",
"                 ..........       ........                      ",
"                 ..XoOOoX..    ..                  ..           ",
"                 ..o+@@+o..    ..                  ..           ",
"                 ..O@##@O..               ........              ",
"                 ..O@##@O..              ..........             ",
"           ..     .o+@@+o..              ..XoOOoX..             ",
"           ..     ..o$OoX..              ..o+@@+o..             ",
"                 ..........              ..O@##@O..             ",
"             ..........                  ..O@##@O..             ",
"             ..XoO$o..     ..            ..o+@@+o..             ",
"             ..o+@@+o.     ..            ..XoOOoX..             ",
"             ..O@##@O..                  ..........             ",
"             ..O@##@O..                   ........              ",
"             ..o+@@+o..                ..          ..           ",
"             ..XoOOoX..                ..          ..           ",
"             ..........                                         ",
"              ........                                          ",
"           ..          ..                                       ",
"           ..          ..                                       ",
"                                                                ",
"                                                                ",
"                                                                ",
"                                                                ",
"                                                                ",
"                                                                ",
"                                                                ",
"                                                                ",
"                                                                ",
"                                                                ",
"                                                                "
};
