/* XPM */
static char *af1ea7daabea40f69a7902239832fa2c2COEYh2rpO2x8FHY[] = {
/* columns rows colors chars-per-pixel */
"64 64 213 2 ",
"   c #010203",
".  c #020304",
"X  c #0B0405",
"o  c #060608",
"O  c #070709",
"+  c #0B0708",
"@  c #0C0B0C",
"#  c #130507",
"$  c #150A0C",
"%  c #1C0B0D",
"&  c #0F0E11",
"*  c #120E11",
"=  c #1B0F11",
"-  c #131315",
";  c #181215",
":  c #171619",
">  c #181619",
",  c #17191C",
"<  c #1A1B1E",
"1  c #24090A",
"2  c #290B0C",
"3  c #340D0E",
"4  c #350F10",
"5  c #291618",
"6  c #371112",
"7  c #3C1213",
"8  c #3C1A1C",
"9  c #1B1D20",
"0  c #231F21",
"q  c #3C1E21",
"w  c #232326",
"e  c #262528",
"r  c #27282B",
"t  c #29292C",
"y  c #372428",
"u  c #2D2D31",
"i  c #322E32",
"p  c #3C2F33",
"a  c #2E3135",
"s  c #323236",
"d  c #35353A",
"f  c #393438",
"g  c #3A3A3D",
"h  c #431415",
"j  c #48191A",
"k  c #58191A",
"l  c #631D1D",
"z  c #6C1E1F",
"x  c #441F22",
"c  c #542B2E",
"v  c #41322A",
"b  c #4C3538",
"n  c #682527",
"m  c #732122",
"M  c #7A2526",
"N  c #653235",
"B  c #6B3133",
"V  c #6D4129",
"C  c #373D42",
"Z  c #3B3D42",
"A  c #413E43",
"S  c #4D3A42",
"D  c #4E3C44",
"F  c #4F3D44",
"G  c #503E46",
"H  c #503F46",
"J  c #5C3D41",
"K  c #364146",
"L  c #3A4145",
"P  c #3C4348",
"I  c #444447",
"U  c #4A464C",
"Y  c #4B494E",
"T  c #514047",
"R  c #55494E",
"E  c #444B51",
"W  c #4E4C51",
"Q  c #574D54",
"!  c #4C5052",
"~  c #535255",
"^  c #54535A",
"/  c #59585D",
"(  c #5B5B5C",
")  c #73484C",
"_  c #695755",
"`  c #7F5257",
"'  c #545A61",
"]  c #5B5B62",
"[  c #625E66",
"{  c #5F6167",
"}  c #5C636A",
"|  c #5F6970",
" . c #636164",
".. c #64626A",
"X. c #696A6D",
"o. c #78646B",
"O. c #626D74",
"+. c #6C6C74",
"@. c #736E76",
"#. c #736F78",
"$. c #627077",
"%. c #69747B",
"&. c #767676",
"*. c #75737B",
"=. c #79767E",
"-. c #812526",
";. c #832728",
":. c #8C2829",
">. c #952B2B",
",. c #9C2E2E",
"<. c #8A3638",
"1. c #903536",
"2. c #A22F2F",
"3. c #AC3232",
"4. c #A63B3D",
"5. c #B23333",
"6. c #9C5126",
"7. c #AF5338",
"8. c #BB5639",
"9. c #C06029",
"0. c #C86535",
"q. c #8A4244",
"w. c #9A4346",
"e. c #9C4A4B",
"r. c #91524E",
"t. c #865559",
"y. c #975459",
"u. c #A2484A",
"i. c #B84D4E",
"p. c #B3564C",
"a. c #8E604D",
"s. c #B8694E",
"d. c #BF7149",
"f. c #8F5A61",
"g. c #925E63",
"h. c #986467",
"j. c #8F6B72",
"k. c #8A747B",
"l. c #8B777C",
"z. c #927B7C",
"x. c #A57462",
"c. c #AB6F71",
"v. c #C15940",
"b. c #C06F5B",
"n. c #C97971",
"m. c #B4867A",
"M. c #D2807F",
"N. c #7C7A83",
"B. c #7A7E87",
"V. c #837D86",
"C. c #8A7A83",
"Z. c #947981",
"A. c #76848C",
"S. c #7E8A93",
"D. c #85838C",
"F. c #89848D",
"G. c #8B8C8D",
"H. c #838B94",
"J. c #898892",
"K. c #8B8992",
"L. c #938C94",
"P. c #8E9295",
"I. c #86949D",
"U. c #8D939C",
"Y. c #91949D",
"T. c #9A9899",
"R. c #A59591",
"E. c #8E95A0",
"W. c #8798A1",
"Q. c #8B99A2",
"!. c #9197A2",
"~. c #929BA5",
"^. c #949FA9",
"/. c #95A3AD",
"(. c #9AA2AA",
"). c #97A6B0",
"_. c #99A7B1",
"`. c #9AABB5",
"'. c #9BAEB9",
"]. c #9EB1BC",
"[. c #A3A3A4",
"{. c #A8A9A9",
"}. c #ABAAB0",
"|. c #A2B4BD",
" X c #ABB3B8",
".X c gray73",
"XX c #CA8D8E",
"oX c #D1A4A1",
"OX c #EABCBC",
"+X c #F0BFBF",
"@X c #A7B8C2",
"#X c #A9B9C1",
"$X c #B7C4CB",
"%X c #C6C7C9",
"&X c #D5C5C5",
"*X c #C2CED4",
"=X c #D4CED1",
"-X c #C5D1D7",
";X c #CAD3D9",
":X c #D2DBDF",
">X c #DBDBDC",
",X c #E2C4C5",
"<X c #E0DFDF",
"1X c #DCE2E5",
"2X c #DEE5E9",
"3X c #E1E2E3",
"4X c #E0E6EA",
"5X c #E3E9ED",
"6X c #EAE9EA",
"7X c #F4E5E6",
"8X c #EBF0F3",
"9X c #F1F3F4",
"0X c #F8F9FA",
/* pixels */
"T T T T T T T T T T T T T T T T T T T T + o o o                 G T T T T T T T T T T T T T T T T T T T T T T T T T T T T T T T ",
"T T T T T T T T T T T T T T T T T T T T o o o o o o o o o + o o T T T T T T T T T T T T T T T T T T T T T T T T T T T T T T T T ",
"T T T T T T T T T T T T T T T T T T T T   o o + $ % = % % % % $ T T T T T T T T T T T T T T T T T T T T T T T G T T T T T T T T ",
"T T T T T T T T T T T T T T T T T T T T o o + % 5 7 h j j h 7 6 5 T T T T T T T T T T T F G T T T T T T T T T H T T T T T T T T ",
"T T T T T T T T T T T T T T T T T T T T   o $ 5 j l m m m z l k 4 % + T T T T T T T T T T T T T T T T T T T T H T T T T T T T T ",
"T T T T T T T T T T T T T T T T T T T T   o % 6 k ;.>.,.,.>.;.l 7 = O   T T T T T T T T T T F T T T T T F T T T T T T T T T T T ",
"T T T T T T T T T T T T T T T T T T T T   o % 7 l M >.2.4.4.1.n 8 % o   T T T T T T T T T T F T T G T H H H G T T T T T T T T T ",
"T T T T T T T T T T T T T T T H T T T G G o % 4 k z M <.w.e.q.N q %       T T T T T T T T F T T F F F F H H T T T T T T T T T T ",
"T T T T T T T T T T T T T T T H G T T T T T G 2 4 h j N ) t.` ) y *                           T D D D D H T T T T T T T T T T T ",
"T T T T T T T T T T T T T T T T G G G T H H G G # = 5 b _ o.o.Q f : o     o o o o o o o o o o o D S S D D G F T T T T T T T T T ",
"T T T T T T T T T T T T T T T T H H H H H H H G * > e A [ @.*.] I r < < , 9 < 9 < < < < < < < , S S D D D H T T T T T T T T T T ",
"T T T T T T T T T T T T T T T T H H H H H H H < w u Z Y ..*.*.+.] E P Z C C P C L L L P K K K d e D H b T G F T T T T T T T T T ",
"T T T T T T T T T T T T T T T T T F U H F   $ e g Y ' [ @.=.N.N.N.$.$.$.O.O.$.O.O.O.$.$.$.$.} E d 9 o H F G T T T T T T T T T T ",
"T T T T T T T T T T T T T T T T T T T F   o : i Y [ @.N.V.V.D.J.H.I.Q.I.Q.I.I.W.I.I.W.I.I.I.A.} C 9 o   H T T T T T T T T T T T ",
"T T T T T T T T T T T T T T T T T T F F * : w A ] N.V.J.F.D.J.U.~.).`.'.`.`.`.`.`.`.`.].].`.I.O.C < o   T T T G T T T T T T T T ",
"T T T T T T T T T T T T T T T T T F T < e u Z ^ +.V.Y.!.U.J.U.!./.'.'.'.].].].`.].].].|.#X].I.$.P < o   T T T Y b T T T T T T T ",
"T T T T T T T T T T T T T T T T T o - e g R / +.D.U.^.^.~.Q.~././.`.].].'.'.'.].'.].].|.|.`.I.$.L < o o T T T T T T T T T T T T ",
"T T T T T T T T T T T T T T T T   o - i U ..=.D.Y.^.)._._.`._.`.`.'.`.].'.'.'.].'.`.].|.|.`.W.$.L < o   T T T T T T T T T T T T ",
"T T T T T T T T T T T T T T T T   o - s ^ *.J.!.^._.'.@X|.@X@X@X#X#X#X#X X#X|.#X@X|.#X#X@X#X^.%.P 9 o   T T T T T T T T T T T T ",
"T T T T T T T T T T T T T T T H   o , d ] B.Y./._.`.|.#X$X$X*X*X-X-X-X-X-X-X-X-X-X-X;X;X:X-X XA.U w o   T T T T T T T T T T T T ",
"T T T T T T T T T T T T T T T H   o < C ..S.^._.'.'.|.#X-X:X3X3X2X5X5X5X5X5X5X5X5X5X5X8X8X5X-XP.^ w o   G T T T T T T T T T T T ",
"T T T T T T T T T T T T T T T T   o < C | I._.`.`.`.@X$X:X5X9X9X8X9X9X9X9X9X9X9X8X8X9X0X9X6X=XT./ r o   T T T T T T T T T T T T ",
"T T T T T T T T T T T T T T T T   o 9 C O.I.`.'.'.'.#X*X1X9X0X9X6X3X>X>X>X>X>X>X>X>X3X3X3X>X Xm.! w o o T T T T T T T T T T T T ",
"T T T T T T T T T T T T T T T T   o 9 P O.W.'.|.'.`.#X*X2X9X9X<X%X{.[.T.T.[.[.[.[.{.[.{.{.{.S.X.g 9 o   T T T T T T T T T T T T ",
"T T T T T T T T T T T T T T T T   o < L $.W.'.].].'.@X*X4X9X6X%XT.&.( ~ ~ ( ( ( (  . . . .( ! v w - o   T T T T T T T T T T T T ",
"T T T T T T T T T T T T T T T T   o < L O.W.`.'.'.'.@X-X4X9X3X X&.I t w w t t t r r r r t t w < - @ o o T T T T T T T T T T T T ",
"T T T T T T T T T T T T T T T T   o < C | H._.'.'.'.@X-X4X9X<X.X&.W r w w t w < - @ @ - < w w < - @ o   T T T T T T T T T T T T ",
"T T T T T T T T T T T T T T T T   o < C { H.^._._.'.@X-X3X9X6X%XT.&./ ( ( ( ! g 0 @ @ 0 g ! ! P r - o   T T T T T T T T T T T T ",
"T T T T T T T T T T T T T T T T   o < d ] B.!.^._.'.#X*X2X9X9X3X%X{.{.[.{.[.m.} s : : g O.G.G.X.L 9 o   T T T T T T T T T T T T ",
"T T T T T T T T T T T T T T T T   o > s ^ *.J.U.^._.@X*X1X9X0X9X6X<X>X<X3X>X|.A.U e w ! G.$XoXG.~ w o o T T T T T T T T T T T T ",
"T T T T T T T T T T T T T T T T   o - t U [ N.D.U./.].$X;X5X6X9X7X7X7X7X7X3X&XR._ v v o.R.&X&XT./ r o   T T T T T T T T T T T T ",
"T T T T T T T T T T T T T T T H   o @ 0 i U ] +.B.U.(. X$X%X=X,X,X,XOX+X+X+XoXm.a.V V a.m.oXoXz.R 5 o   T T T T T T T T T T T T ",
"T T T T T T T T T T T T T T T H   o & - 0 u Z ' N.V.Y./.}.}.}.oXXXM.M.M.M.M.n.s.7.6.6.7.d.M.c.r.b 5 o . T T T T T T T T T T T T ",
"T T T T T T T T T T T T T T T T o o   & @ : 0 Z / N.C.J.U.Y.Z.Z.x.s.i.i.i.i.v.p.9.9.9.9.p.p.u.B x 2 o . T T T T T T T T T T T T ",
"T T T T T T T T T T T T T T T T o o       + : s Q o.Z.C.C.C.j.f.y.u.4.4.4.4.7.8.8.0.0.0.8.7.1.z 8 ; o . T T T T T T T T T T T T ",
"T T T T T T T T T T T T T T T T H           & q J ` g.g.f.f.y.y.r.e.w.w.w.w.u.u.d.b.b.s.p.e.<.c 8 - o . T T T T T T T T T T T T ",
"T T T T T T T T T T T T T T T T T H H       * q N q.w.e.u.u.y.y.y.t.g.t.h.y.f.h.x.x.x.x.h.g.) J y $ o . T T T T T T T T T T T T ",
"T T T T T T T T T T T T T T T T T H H F   o % j n 1.4.4.4.4.u.e.h.j.l.l.k.k.l.l.l.z.z.z.z.C.o.R s ; o . T T T T T T T T T T T T ",
"T T T T T T T T T T T T T T T T T H H F + + % 8 B 1.4.4.4.4.u.y.j.C.G.H.J.J.D.D.F.F.F.J.J.V.N.^ s , o . T T T T T T T T T T T T ",
"T T T T T T T T T T T H H T T T T T H j % # = q N q.u.u.i.u.y.h.Z.K.Y.Q.U.Y.U.U.E.E.E.!.!.U.B.' d < o   T T T T T T T T T T T T ",
"T T T T T T T T T T T H H T T T T 5.:.k 4 $ ; y J t.f.g.g.g.j.Z.L.~.(._./././././././.).).^.S.] g < o . T T T T T T T T T T T T ",
"T T T T T T T T T T T T T T T T 5.3.>.z 6 % > i R o.C.C.k.Z.C.J.Y./._._._.).).).).)._.`.`.).I.| C < o   T T T T T T T T T T T T ",
"T T T T T T T T T T T T T H H H 5.3.>.z h % > u ^ +.V.V.C.V.V.H.H.I.I.Q.W.W.W.I.I.W.W.^.).^.I.O.C < o   T T T T T T T T T T T T ",
"T T T T T T T T T T T T T H H 5.5.3.>.z h = > a W N.V.J.V.J.V.B.N.$.$.O.$.$.$.$.O.$.%.A.W.E.H...C < o   T T T T T T T T T T T T ",
"T T T T T T T T T T T T T 3.3.5.5.3.>.z 7 % > u ~ +.V.J.J.F.N.+.' P P C K P P C C C E ] B.H.B.[ Z < o   T T T T T T T T T T T T ",
"T T T T T T T T T T T T 3.3.3.5.5.3.>.z 7 % > s Q @.V.J.F.V.#.] Z u < , 9 9 9 , 9 9 t U ] N.@.] d > o   T T T T T T T T T T T T ",
"T T T T T T T T T T T T 3.3.3.5.5.3.>.z h % > a ^ @.V.V.N.*.[ R f 5 % # o o o @ & ; 0 Z ^ [ [ W i - o . T T T T T T T T T T T T ",
"T T T T T T T T T T T T 3.3.3.5.5.3.>.z 7 % , a ^ @.V.=.X.] Y b c 8 6 1 # X o * 9 r d A U W Y Z e -   . T T T T T T T T T T T T ",
"T T T T T T T T T T T T 3.3.5.5.5.3.>.z h 1 > d / @.N.X.^ Z p c l z k h 2 X & < d U R Y I f t e < @   T T T T T T T T T T T T T ",
"T T T T T T T T T T T T 3.3.3.3.3.3.>.n 7 % > a ^ +.@.] Z w 5 x n -.-.l 6 % - u W  . .Q g e > @ @ o T T T T T T T T T T T T T T ",
"T T T T T T T T T T T T ,.2.2.3.3.2.:.l 3 % - u Y [ [ W a > % h z ;.:.z 6 % - u Y ] [ Y i > o     T T T T T T T T T T T T T T T ",
"T T T T T T T T T T T H -.:.:.>.>.>.m j 2 % * w f U U Z w $ # 3 l -.M k 3 $ - w Z W Y I w &     T T T T T T T T T T T T T T T T ",
"T T T T T T T T T T T H H z z z m z k 3 % @ @ > 0 u u e , @ # 2 h l k h 1 @ @ , 0 u i t , @   T T T T T T T T T T T T T T T T T ",
"T T T T T T T T T T T T T T T T T T 2 % # o @ @ & ; > - &   T T T T 2 % # o @ @ * : , - @ o T T T T T T T T T T T T T T T T T T ",
"T T T T T T T T T T T T T T T T T T T     o   o o o o     T T T T T T     o   o o o o     T T T T T T T T T T T T T T T T T T T ",
"T T T T T T T T T T T T T T T T T T T T o   o           T T T T T T T T o   o           T T T T T T T T T T T T T T T T T T T T ",
"T T T T T T T T T T T T T T T T T T T T T   o         T T T T T T T T T T   o         T T T T T T T T T T T T T T T T T T T T T ",
"T T T T T T T T T T T T T T T T T T T T T T T T T T T T T T T T T T T T T T T T T T T T T T T T T T T T T T T T T T T T T T T T ",
"T T T T T T T T T T T T T T T T T T T T T T T T T T T T T T T T T T T T T T T T T T T T T T T T T T T T T T T T T T T T T T T T ",
"T T T T T T T T T T T T T T T T T T T T T T T T T T T T T T T T T T T T T T T T T T T T T T T T T T T T T T T T T T T T T T T T ",
"T T T T T T T T T T T T T T T T T T T T T T T T T T T T T T T T T T T T T T T T T T T T T T T T T T T T T T T T T T T T T T T T ",
"T T T T T T T T T T T T T T T T T T T T T T T T T T T T T T T T T T T T T T T T T T T T T T T T T T T T T T T T T T T T T T T T ",
"T T T T T T T T T T T T T T T T T T T T T T T T T T T T T T T T T T T T T T T T T T T T T T T T T T T T T T T T T T T T T T T T ",
"T T T T T T T T T T T T T T T T T T T T T T T T T T T T T T T T T T T T T T T T T T T T T T T T T T T T T T T T T T T T T T T T "
};
