/* XPM */
static char *bb7df6a1536941f8b292c2cf7080cecbpycxcQ75qWim1QiA[] = {
/* columns rows colors chars-per-pixel */
"64 64 212 2 ",
"   c None",
".  c #010203",
"X  c #060608",
"o  c #0B0708",
"O  c #0C0B0C",
"+  c #0B0405",
"@  c #150A0C",
"#  c #1C0B0D",
"$  c #130507",
"%  c #0F0E11",
"&  c #120E11",
"*  c #1B0F11",
"=  c #131315",
"-  c #171619",
";  c #181619",
":  c #17191C",
">  c #1A1B1E",
",  c #181215",
"<  c #290B0C",
"1  c #24090A",
"2  c #350F10",
"3  c #291618",
"4  c #3C1213",
"5  c #3C1A1C",
"6  c #371112",
"7  c #340D0E",
"8  c #1B1D20",
"9  c #231F21",
"0  c #3C1E21",
"q  c #232326",
"w  c #262528",
"e  c #29292C",
"r  c #27282B",
"t  c #372428",
"y  c #2D2D31",
"u  c #322E32",
"i  c #3C2F33",
"p  c #2E3135",
"a  c #323236",
"s  c #35353A",
"d  c #3A3A3D",
"f  c #393438",
"g  c #431415",
"h  c #48191A",
"j  c #58191A",
"k  c #631D1D",
"l  c #6C1E1F",
"z  c #441F22",
"x  c #41322A",
"c  c #4C3538",
"v  c #542B2E",
"b  c #682527",
"n  c #732122",
"m  c #7A2526",
"M  c #653235",
"N  c #6B3133",
"B  c #6D4129",
"V  c #3B3D42",
"C  c #373D42",
"Z  c #413E43",
"A  c #5C3D41",
"S  c #3A4145",
"D  c #3C4348",
"F  c #364146",
"G  c #4A464C",
"H  c #4B494E",
"J  c #444447",
"K  c #55494E",
"L  c #4E4C51",
"P  c #444B51",
"I  c #574D54",
"U  c #4C5052",
"Y  c #535255",
"T  c #54535A",
"R  c #5B5B5C",
"E  c #59585D",
"W  c #695755",
"Q  c #7F5257",
"!  c #73484C",
"~  c #5B5B62",
"^  c #545A61",
"/  c #625E66",
"(  c #5C636A",
")  c #5F6167",
"_  c #5F6970",
"`  c #636164",
"'  c #64626A",
"]  c #696A6D",
"[  c #78646B",
"{  c #626D74",
"}  c #6C6C74",
"|  c #736E76",
" . c #736F78",
".. c #627077",
"X. c #69747B",
"o. c #75737B",
"O. c #79767E",
"+. c #767676",
"@. c #812526",
"#. c #8C2829",
"$. c #832728",
"%. c #952B2B",
"&. c #9C2E2E",
"*. c #8A3638",
"=. c #903536",
"-. c #A22F2F",
";. c #AC3232",
":. c #A63B3D",
">. c #A93839",
",. c #B23333",
"<. c #9C5126",
"1. c #BB5639",
"2. c #AF5338",
"3. c #C25E33",
"4. c #C86535",
"5. c #C06029",
"6. c #8A4244",
"7. c #9C4A4B",
"8. c #9A4346",
"9. c #865559",
"0. c #975459",
"q. c #91524E",
"w. c #A2484A",
"e. c #B84D4E",
"r. c #B3564C",
"t. c #BF7149",
"y. c #B8694E",
"u. c #8F5A61",
"i. c #925E63",
"p. c #986467",
"a. c #8A747B",
"s. c #8B777C",
"d. c #927B7C",
"f. c #8F6B72",
"g. c #A57462",
"h. c #AB6F71",
"j. c #8E604D",
"k. c #C15940",
"l. c #C06F5B",
"z. c #C97971",
"x. c #B4867A",
"c. c #D2807F",
"v. c #7C7A83",
"b. c #7A7E87",
"n. c #837D86",
"m. c #8A7A83",
"M. c #947981",
"N. c #7C838B",
"B. c #76848C",
"V. c #7E8A93",
"C. c #85838C",
"Z. c #89848D",
"A. c #8B8C8D",
"S. c #838B94",
"D. c #8B8992",
"F. c #898892",
"G. c #938C94",
"H. c #86949D",
"J. c #8D939C",
"K. c #8E9295",
"L. c #91949D",
"P. c #9A9899",
"I. c #99868D",
"U. c #A59591",
"Y. c #8E95A0",
"T. c #8B99A2",
"R. c #8798A1",
"E. c #929BA5",
"W. c #949FA9",
"Q. c #9197A2",
"!. c #AF9FA2",
"~. c #95A3AD",
"^. c #9AA2AA",
"/. c #97A6B0",
"(. c #99A7B1",
"). c #9AABB5",
"_. c #9BAEB9",
"`. c #9EB1BC",
"'. c #A3A3A4",
"]. c #A8A9A9",
"[. c #A2B4BD",
"{. c #ABB3B8",
"}. c #BABABA",
"|. c #ABAAB0",
" X c #D48181",
".X c #CA8D8E",
"XX c #D1A4A1",
"oX c #EABCBC",
"OX c #F0BFBF",
"+X c #A9B9C1",
"@X c #A7B8C2",
"#X c #B7C4CB",
"$X c #C6C7C9",
"%X c #D5C5C5",
"&X c #C2CED4",
"*X c #C5D1D7",
"=X c #CAD3D9",
"-X c #DBDBDC",
";X c #D2DBDF",
":X c #D4CED1",
">X c #E0DFDF",
",X c #E2C4C5",
"<X c #DCE2E5",
"1X c #DEE5E9",
"2X c #E1E2E3",
"3X c #E3E9ED",
"4X c #EAE9EA",
"5X c #E0E6EA",
"6X c #F4E5E6",
"7X c #F1F3F4",
"8X c #F8F9FA",
"9X c #EBF0F3",
/* pixels */
"                                        X X X X . . . . . . . .                                                                 ",
"                                        X X X X X X X X X X X X                                                                 ",
"                                        . X X o @ # * # # # # @                                                                 ",
"                                        X X o # 3 4 g h h g 4 6 3                                                               ",
"                                        . X @ 3 h k n n n l k j 2 # X                                                           ",
"                                        . X # 6 j @.%.&.&.%.$.k 4 # X .                                                         ",
"                                        . X # 4 k @.%.-.:.:.=.b 5 # X .                                                         ",
"                                          X # 2 j l m *.8.7.6.M 0 # . . .                                                       ",
"                                              < 2 g h M ! 9.Q ! t & . . . . . . . . . . . . .                                   ",
"                                                $ * 3 c W [ [ I f ; X . . X X X X X X X X X X X                                 ",
"                                                & ; w Z / |  .~ J e > > : 8 8 8 > > > > 8 > > :                                 ",
"                                              > q y V L ' o.o.} ~ P D C C S S C S S S S F F F s r                               ",
"                                          . & w d H ^ / | O.v.v.v...{ { { { { { { { { ....{ ( P s : X                           ",
"                                        . X - u H / | v.n.n.C.F.S.H.R.R.R.R.H.R.H.H.R.R.T.H.B.( C 8 X .                         ",
"                                        % ; 9 Z ~ v.n.D.Z.C.F.J.E./.)._.).).).).).).).`.`.).H.{ S > X .                         ",
"                                      > w y V T } n.L.Q.J.D.J.Q.~._._.`.`._.`._.`.`.`.[.@X_.R.{ S > X .                         ",
"                                  X = w d K E } C.J.W.W.E.T.E.~./.)._._._._._._._._.`.[.[.).R...S > X .                         ",
"                                . X = u G ' O.C.L.W./.(.(.).(.).)._._._._._._._._._._.[.[.).R...S 8 X .                         ",
"                                . X = a T o.F.Q.W.(._.@X[.@X@X@X+X+X+X+X+X+X+X+X+X+X+X+X+X+XW.X.D 8 X .                         ",
"                                . X : s ~ b.L.~.(.).[.+X#X#X&X&X*X*X*X*X*X*X*X*X*X*X=X=X;X*X{.B.L 9 X .                         ",
"                                . X > C ' V.W.(._._.[.+X*X;X2X2X1X3X3X3X3X3X3X3X3X3X3X9X9X3X&XK.T q X .                         ",
"                                . X > C _ H.(.).).).@X#X;X3X7X7X7X7X7X7X7X7X7X7X9X9X7X8X7X4X:XP.E r X .                         ",
"                                . X 8 C { H.)._._._.+X&X<X7X8X7X4X2X-X-X-X-X-X-X-X-X>X2X2X-X+Xx.U q X .                         ",
"                                . X 8 D { R._.[._.).+X&X1X7X7X>X$X].'.P.P.'.'.'.'.].'.].].'.V.] d > X .                         ",
"                                . X > S ..R._.`.`._.@X&X5X7X4X$XP.+.R Y Y R R R R ` ` ` ` R U x q % X .                         ",
"                                . X > S { R.)._._._.@X*X5X7X2X{.+.J e q q e e e e e e e e e q > = O X X                         ",
"                                . X > C _ S.(._._._.@X*X5X7X>X}.+.H e q q e q > = O O = > q q > = O X .                         ",
"                                . X > C ) S.W.(.(._.@X*X2X7X4X$XP.+.R R R R U d 9 O O 9 d U U S r = X .                         ",
"                                . X > s ~ b.Q.W.(._.+X&X1X7X7X2X$X].].'.].'.x.( a - - d { A.A.] S > X .                         ",
"                                . X ; a T o.F.J.W.(.@X&X<X7X8X7X4X>X-X>X>X-X+XB.H 9 q U A.#XXXA.T q X .                         ",
"                                . X = e G / v.C.J.~.`.#X=X3X4X7X6X6X6X6X6X>X%XU.W x x [ U.%X%XP.R r X .                         ",
"                                . X O 9 u G ~ } b.J.^.{.#X$X:X,X,X,XoXOXOXoXXXx.j.B B j.x.XXXXd.K 3 X .                         ",
"                                . X % = 9 y V ^ v.n.L.W.|.|.|.XX.Xc.c.c. Xc.z.y.2.<.<.2.t.c.h.q.c 3 X .                         ",
"                                X X . % O ; 9 V ^ v.m.D.J.L.M.M.g.y.e.e.e.e.k.r.5.5.5.5.r.r.w.N z < X .                         ",
"                                X X . . . o - a I [ M.m.m.m.f.u.0.w.:.:.:.:.2.1.1.4.4.4.1.2.=.b 5 * X .                         ",
"                                  . . . . . % 0 A Q i.i.u.u.0.0.q.7.8.8.8.8.w.w.t.t.l.y.r.7.*.v 5 , X .                         ",
"                                      . . . & 0 M 6.8.7.w.w.0.0.0.9.u.u.i.u.i.p.g.g.g.g.p.i.! A t & X .                         ",
"                                        . X # h b =.:.:.:.:.w.7.i.f.a.a.a.a.a.s.s.d.d.d.d.m.[ K u , X .                         ",
"                                        o o # 5 N =.:.:.:.:.w.0.f.m.A.S.F.F.Z.Z.Z.Z.Z.D.D.n.v.T a : X .                         ",
"                                      h # $ * 0 M 6.w.w.e.w.0.p.M.G.L.T.J.L.J.J.Y.Y.Y.Q.Q.J.b.^ s 8 X .                         ",
"                                  ,.#.j 2 @ , t A Q i.i.i.i.f.M.G.E.^.(.~.~.~.~.~.W./././.W.V.~ d > X .                         ",
"                                ,.;.%.l 6 # ; u K [ m.m.a.M.m.D.L.W.(.(.(./././././.(.).)./.H._ C : X .                         ",
"                                ,.;.%.l g # ; y T } n.n.m.n.n.S.S.H.H.R.R.R.R.H.H.R.R.W./.W.H.{ C > X .                         ",
"                              ,.,.;.%.l g * ; p L v.n.F.n.F.n.b.v...............{ ..X.B.R.Y.S.' C > X .                         ",
"                          ;.;.,.,.;.%.l 4 # ; y Y } n.D.D.Z.v.} ^ D D C F D D C C C P ~ b.S.b./ V > X .                         ",
"                        ;.;.;.,.,.;.%.l 4 # ; a I | n.F.Z.n. .~ V y 8 : 8 8 8 : 8 8 e G ~ v.| ~ s ; X .                         ",
"                        ;.;.;.,.,.;.%.l g # ; p T | n.n.v. ./ K f 3 # $ X X X O % , 9 V T / / L u = X .                         ",
"                        ;.;.;.,.,.;.%.l 4 # : p T | n.O.] ~ H c v 5 2 1 $ + X & 8 r s Z G L H V w = . .                         ",
"                        ;.;.,.,.,.;.%.l g # ; s E  .v.] T V i v k l j g < + % 8 s G L H Z f e w : O .                           ",
"                        ;.;.;.;.;.;.%.l 4 # ; p T } | ~ V q 3 z b @.@.k 2 # = y H / / I d w ; O O X                             ",
"                        &.-.-.;.;.-.#.k 2 # = y H / / L p ; # g l $.#.l 4 # = y H / / L u ; X . .                               ",
"                        @.#.#.%.%.%.n h < # & q f G G V q @ $ 7 k @.m j 7 @ = q V H L Z w % . .                                 ",
"                          l l l n l j 2 # O O ; 9 y y w : O $ < g k j g 1 O O : 9 y u e > O .                                   ",
"                                    < # $ X O O % , ; = % .         < # $ X O O & ; : = O X                                     ",
"                                      . . X . X X X X . .             . . X . X X X X . .                                       ",
"                                        X . X . . . . .                 X . X . . . . .                                         ",
"                                          . X . . . .                     . X . . . .                                           ",
"                                                                                                                                ",
"                                                                                                                                ",
"                                                                                                                                ",
"                                                                                                                                ",
"                                                                                                                                ",
"                                                                                                                                ",
"                                                                                                                                "
};
