/* XPM */
static char *dd57031cc7ed4f7d8967b7f1c7f81c5fGbp6FvOCY9Olt6Dw[] = {
/* columns rows colors chars-per-pixel */
"64 64 84 1 ",
"  c #313A4B",
". c #353E50",
"X c #374053",
"o c #394255",
"O c #3C465A",
"+ c #3E495E",
"@ c #3F4A60",
"# c #424E64",
"$ c #445067",
"% c #465269",
"& c #49556C",
"* c #4A5771",
"= c #4C5973",
"- c #4F5D78",
"; c #505D76",
": c #515F7A",
"> c #54617C",
", c #58657F",
"< c #566582",
"1 c #596782",
"2 c #596884",
"3 c #5A6984",
"4 c #5B6985",
"5 c #596887",
"6 c #5A6887",
"7 c #5C6B87",
"8 c #596888",
"9 c #596988",
"0 c #5A6988",
"q c #5B6A89",
"w c #5B6B8A",
"e c #5C6B8B",
"r c #5E6D89",
"t c #5C6C8B",
"y c #5F6E8A",
"u c #5D6C8C",
"i c #5F6F8E",
"p c #5F6F8F",
"a c #606E8B",
"s c #606F8F",
"d c #61708D",
"f c #62708D",
"g c #60708F",
"h c #62718E",
"j c #617190",
"k c #617191",
"l c #627191",
"z c #627291",
"x c #627292",
"c c #647391",
"v c #647493",
"b c #667593",
"n c #647494",
"m c #657494",
"M c #667594",
"N c #667694",
"B c #677694",
"V c #667695",
"C c #677795",
"Z c #677696",
"A c #687795",
"S c #687896",
"D c #697897",
"F c #687898",
"G c #697998",
"H c #697899",
"J c #6B7A99",
"K c #69799A",
"L c #6A799A",
"P c #6B7B9A",
"I c #6A7B9B",
"U c #6C7B9B",
"Y c #6C7C9B",
"T c #6B7B9C",
"R c #6E7E9D",
"E c #6D7D9E",
"W c #6E7E9F",
"Q c #6F7F9F",
"! c #6F7FA0",
"~ c #6F80A0",
"^ c #6F80A1",
"/ c #7080A0",
"( c #7080A1",
") c #7383A4",
/* pixels */
"###$$###$#$###$###$$####$$###$#####OoX                          ",
"#$$###$#$###$#$#$####$$####$#$#$$#@+oo.  ........... o..........",
"#$###$$###$$###$$##$##$$###$###$##@@OOOOOOOOOOOOOOOOOOOO+OOOOOOo",
"###$$####$##$$####$#$###$$##$#####$$&&&&&&&&&&&&&&&&&&&&&&&&&&&&",
"$#$##$#$#$$####$#$###$$#####$#####$&-,,,11111111,,11111111,1,,,,",
"$######$$####$###$#$###$#$$#$####$&;,fvDBBzBzBcBBBvBvvAAcAcAAAbA",
"##$$$$#####$#$$###$#$#####$####@##&>aD//!TTTUUUTJJUTDDDJJJU!RRRR",
"#$####$##$#$###$$###$#$#$##$#$####&>aY//!TJJJJJJJTABvhhhAJJ!!!))",
"$##$$$#$#$$##$##$###$#$$########@$&>f////vhAvvBBccse2,<1ezBT!!!)",
"#####@#$###$##########@$##########&>aADDfatttt0eee7:;**;>6ecHT!!",
"+##+@@@@@#@@+#@#$###@@@$@#@##+#++#$;,fvft<,>><>11<::&$#%;:<eacBA",
"OO+OOOOOOOOOOOO+@@##@OOOOOOOOO+OOO+$=>,>-=&****=;;:&#+O##&=;>>11",
"XXXoooXooXXXoooO@@@OOoooXXXXoo.oXXO++$$$$+@@@@#$&*&#+Oooo###$%%%",
"XXXXXoXXXXXXXXoO@@#@Ooo.XXXX.oo.XXXoOOOOOoOoooO@#$$@Oo.ooooOOOOO",
"OOOOOOOOOOOOOOO+####+OOOOO+OOOOOOOO+OOOOOOOOOOOO###@@OOOOOOOOOOO",
"&&&&&&&&&&&&&&%%$##$$&&&&&&&&&&&&&&&&&&&&&&&&&%%###$$&&&&&&&&&&&",
",,1111116111111;&$$&;1,1<61111<111<<11,1,,1,,,>;&$$&;,,111111,,1",
"AJBBBBBBBBBBAMa,=&&=,aAABBBBBBBBBBBBvvvBCvCvJCf,-$%-1fvABBvvvAAv",
"YYYYYYYYJTU!W!H7>&&;7D!!!TJTUJJTTJJTJJTTYPP~~~Dr:&&;2JWW~YYJJJJJ",
"JDDDJJDJHHJU!!Ja>&&>fJ//!JJHJJJJJJJJJJJJDPS~~~Pr>&&:tJ!!WDJJJJDJ",
"zcvzzczzccMH!!Ma>&%>tY//JBzzzccczzzzzzzzvvvD~~Pr>&&>tJ!WJBzzzzzx",
"eue0ttueeesMHUMa>&&>7BYDBueeeeeeuuuuu0uettivD/Cr>&%:eAWJnueettut",
"0000000088esMHAa;%&;1fBvae0880000000000900tivvf2;&&:7AJBze000000",
"008000008eesMBs6>%%=,7ttee00000800008890002ttt7>&%&-1hBvpe0<8000",
"0000888000eesza<=%%%=>>,,22088e8000000009999>>-*&&*=1tppue080000",
"88880<88880e088:=%$$$%&>>12002868000888000<>-*&&@@$*>2t000808888",
"<<<<<<<:<<<><<:-%$#O+#$&-:<<<<><<<<<<<<<<<>-*$@@@$$*-<<6<<<<<<<<",
"::;:-*********&##+OOoOO+$&*****---->>:::>>-=%%@$@$%&&-:->-<->->-",
"-*&&$####@##O##OOoXXXXoOO@#@#@##%&*=***==***$$$@$@$&&**=&====*=*",
"$###+OoooooOO.O.XXXXXXXXooooooO@@%%&%%%&%%%@$$$@@$@$$$$%%%$%%%%%",
"$###+++OOOOOOOOOOOOOOOOOOOOOO+OO@$##$#@$$$@$@$$$@$$$@$$$$$$$$$#$",
"####$$%&&&%&&&&&&&&&&&&&*&&&&%%%%###@#$@$@$$@$@$$$$@$$@@$@@$@@$@",
"@#$&;>,11<1111<<111<111111,1,,>;&%$@@@$@#######$################",
"#$&=1fvDBBBBvvvBBBBBBBBBAvAAAAa6-%$@$$@$###@###$#$##############",
"@$&>rDWWWJJTYJTTJTTTTTTTJJYW/WAe>%$#@$$$#$$##$###$##$##$###$$###",
"@$&>aD!!WJJDJJTTJJJFJJJJJJJW//Ua>&#@@@$$$######$###$#$#######$##",
"@$%>uJ~!JBzzpzxxzzzzzzczzzBJ!!Hs>&$@$@$$$#$$#$##$#$#$#$##$$###$#",
"@$%>tJTJzpeteeuuttuuu0ee2uszHUAa>&$$@$$$######$$$###$###$###$#$#",
"@$&>uBJBz000<<<0<000000800uzMHB0;&$@@@@$#$$#$#####$$###$###$#$##",
"##$><zBzz08<<<-<<000088880epMBz8;&$@$$$$#$##$#$#$####$$##$#$###$",
"##%;,tfzu00<--*-<<000000000aza0<;&@$#$###$##$$##$#####$##$$##$##",
"##%=>1tt00<:*&&*:<8808880200ee8<=$$@###################$########",
"+##&=><<<<--&%$&-><00<<<<<<<<<:=&@@@#+@##+@#@@####$####++#+@@@@@",
"OO+@%&&=**&#@O@#&-::-:--=**%**&%@+++OOOOOOOOOOO++##++OOOOO+O+O++",
"XoXOO@@@#+++OXo@#&*=-**&$$###$+++oXXoXXXXXXXoooO+#++OooXoXXXXXXX",
"XXXXXooOOoooXXoO@%$&%%%@+Ooo oooooXoXXXXXXXXXXoO+##+OoXXXXXXXXXX",
"OOOOOOO++O+OOOO+@####@@@OOOO+++OOOOOOOOOOOOOOOO@+###+OOOOOOOOO+O",
"&&&&&&&&&&$&&&&$%$@@+OO@$$&&&%%&&&&&&&&&&&&&&&&$$$#$$&&&&&&&&&&&",
"1111<<11111111>-&$++ooo$*>,,211<112<11<0111,,1>>&$$&;,,,13111111",
"BBvSBBBBvzBBBBf2;&++oo+$>fACnBBBBBBBBBBBCCvCShf,-&&;,fvCSCvCACCD",
"TJJTTJTTJTTW/YJt>&++++#=,f~~!TTTJJTJTJTJYYP~~~Cr>&&;rCS~~JPPPPYP",
"JJJJHJJJJJJW//Ja>&$$$&*,fCCDJFJJFJJJJJJJDJP~~~Pi;&&>tS~~~JJCSDJJ",
"zzzzzBzzzBzJW/Ja>&$*->7tffvvpvzzzzzxzzxzvvvD~~St>&&>t/~~JBzzvvfv",
"uteeeee00uunJJDu;&&=,fvpfrttttu0tuuuttuettivFFnt;&&;,/~Snuuetttt",
"0000000800ezBJv7;&&;rv~nvt7900000000000000thB~B7;&&;,/S~ze002000",
"0098088800utBBz1-&&-7vBnit2220090000900022ttvSp9;&&;,hffpe00<900",
"e088008890etpzu<=%&=<unpue80009000000000999uizt>=&&=<tzute090000",
"90<00<808800ut<>=*%=>2ttt9809880000000899099tt9:*&$=>0tt00908888",
"<<0<<<<<<<<<<<<-*@$*-><<<<1<<<<<<<<<<<<<1<2222>-*@$*-><<<<<<<<<<",
"::::::::->>->--&*%@&*->:>-:::-:--->->->-:>->:--*&&$%*-::->>-->->",
"=======*&=====*&$$$$&**=======*=*=====*=-=====**@@&&%**===**-***",
"$$$%%%%%$%%$$$%$$$$$$$$$$$%%%$$%%%%%%%%%@&@&@&@*@&@@$$$%%%$%%%%%",
"$$$$$@$$$$$#$$##$@$$@$$$$$@$$$$$$@$@$$@$@&@*@&&@&@&@$$$$@$$$$$@$",
"@@@@$@@$@@##@@@#$@$@$@$@@@$@$@@@$@$@@$@@&@@@@@@@@@&@$@@@$@$@@@$@"
};
